PathFileType	4	(X/Y/Z)	SUBJ59_2_walk_RCNL2025.trc
DataRate	CameraRate	NumFrames	NumMarkers	Units	OrigDataRate	OrigDataStartFrame	OrigNumFrames
100	100	11	25	mm	100	287	327
Frame#	Time	R_Shoulder			L_Shoulder			C7			J_Notch			R_Elbow			L_Elbow			R_Wrist			L_Wrist			R_Asis			L_Asis			Sacral			Thoracic			Sternum			R_Thigh_Lateral			R_Knee_Lateral			R_Shank_Lateral			R_Ankle_Lateral			R_Heel			R_Toe			L_Thigh_Lateral			L_Knee_Lateral			L_Shank_Lateral			L_Ankle_Lateral			L_Heel			L_Toe		
		X1	Y1	Z1	X2	Y2	Z2	X3	Y3	Z3	X4	Y4	Z4	X5	Y5	Z5	X6	Y6	Z6	X7	Y7	Z7	X8	Y8	Z8	X9	Y9	Z9	X10	Y10	Z10	X11	Y11	Z11	X12	Y12	Z12	X13	Y13	Z13	X14	Y14	Z14	X15	Y15	Z15	X16	Y16	Z16	X17	Y17	Z17	X18	Y18	Z18	X19	Y19	Z19	X20	Y20	Z20	X21	Y21	Z21	X22	Y22	Z22	X23	Y23	Z23	X24	Y24	Z24	X25	Y25	Z25
287	2.86000000	931.836060	1439.419922	435.435242	920.239319	1479.968262	35.629223	830.500183	1543.567749	242.655655	991.179688	1444.817017	233.693878	941.484680	1127.572388	530.742676	850.392151	1148.808716	-74.573677	1078.576904	884.967499	513.094345	862.258789	880.021484	-72.903248	976.768250	982.804199	341.523865	994.896423	983.882568	119.030861	772.996826	1007.433594	206.682205	763.958008	1330.048584	215.567673	1042.881104	1249.776611	221.695251	840.882935	594.795227	407.258057	808.464783	503.322968	348.825287	760.148438	307.202484	415.118500	673.882324	75.428040	298.334900	634.265747	69.058456	253.066605	833.802429	44.053158	268.680176	996.749634	598.900269	17.184048	1048.730103	506.424988	75.358551	1102.029663	319.973541	10.466448	1159.576904	95.523376	79.693871	1123.359375	58.085663	134.902634	1318.322632	99.928703	124.160683
288	2.87000000	942.320496	1438.076782	434.288300	931.117676	1477.662476	34.371998	841.224670	1541.933105	241.213043	1001.855530	1442.980225	232.589584	953.519653	1126.754639	530.182312	860.159851	1146.718140	-75.238190	1091.739441	884.774567	512.846115	869.204315	877.860596	-74.212620	986.747192	981.231506	341.678436	1005.503540	981.760681	119.157875	784.909729	1005.789246	204.720947	774.464844	1328.518311	214.373398	1053.279541	1247.855469	221.283081	847.648315	594.093323	407.273590	814.413086	502.902740	348.782288	763.243835	307.430450	415.055450	674.312317	76.589249	298.170074	634.713013	70.595924	252.773376	833.968811	43.950054	268.750702	1007.173706	596.583130	17.619268	1060.383423	504.996735	76.143753	1117.143921	319.165741	11.680922	1175.208740	95.309616	80.626228	1139.087280	57.474052	135.697098	1333.937744	100.999176	125.892647
289	2.88000000	952.919861	1436.787964	433.060333	942.050293	1475.435059	33.025978	852.052185	1540.364380	239.699341	1012.628540	1441.198608	231.406174	965.408813	1125.976074	529.525696	870.183716	1144.669678	-75.993118	1104.446045	884.420471	512.563416	876.569550	875.731293	-75.517244	996.797485	979.699707	341.767242	1016.136414	979.713257	119.223709	796.915405	1004.248657	202.568329	785.083801	1327.058716	213.118637	1063.764526	1245.984131	220.800446	854.680725	593.422913	407.309174	820.675903	502.466705	348.766663	766.583374	307.745941	415.085144	674.829468	77.906174	298.141815	635.211365	72.334572	252.642700	834.138550	43.871922	268.851898	1018.992981	594.981018	18.136225	1072.366821	503.756561	76.872551	1130.537109	318.069702	12.951398	1188.261841	94.550659	81.847267	1152.130737	56.650478	136.876770	1347.032104	100.499786	127.576111
290	2.89000000	963.644165	1435.588623	431.737152	953.038208	1473.299194	31.590099	862.980957	1538.878052	238.086395	1023.504517	1439.493896	230.138870	977.135803	1125.260498	528.771729	880.447571	1142.670166	-76.832291	1116.687439	883.936493	512.251129	884.380554	873.651825	-76.813238	1006.939453	978.224426	341.785492	1026.826050	977.775269	119.231415	808.949951	1002.833557	200.273117	795.816406	1325.680420	211.808334	1074.348877	1244.185059	220.236252	861.929504	592.823669	407.386658	827.226440	502.035126	348.802094	770.137817	308.175903	415.242615	675.437988	79.391670	298.281128	635.767700	74.291328	252.703888	834.310486	43.818264	268.994354	1032.101807	594.088379	18.715832	1084.598511	502.669983	77.553200	1142.163086	316.649506	14.209243	1198.919556	93.247025	83.288834	1162.632446	55.618683	138.329758	1357.779785	98.423912	129.223587
291	2.90000000	974.498291	1434.509766	430.312012	964.087585	1471.267578	30.064205	874.007507	1537.490723	236.348297	1034.487305	1437.889160	228.785080	988.678284	1124.622192	527.918945	890.931519	1140.724243	-77.749344	1128.453979	883.349609	511.912643	892.662598	871.641205	-78.097820	1017.192627	976.823975	341.730682	1037.604248	975.986755	119.180595	820.956055	1001.565979	197.906693	806.661438	1324.394165	210.451218	1085.047607	1242.486450	219.580002	869.367737	592.325317	407.519104	834.053345	501.632294	348.907074	773.893555	308.741089	415.545410	676.144714	81.064842	298.600494	636.396179	76.491745	252.966537	834.485168	43.784565	269.180145	1046.226807	593.824158	19.334993	1096.972656	501.706299	78.185570	1152.364502	314.881500	15.484605	1207.469116	91.483818	84.856049	1170.835327	54.456516	139.905075	1366.445923	94.880898	130.855301
292	2.91000000	985.483765	1433.579224	428.784149	975.207703	1469.354980	28.447952	885.127747	1536.222778	234.470444	1045.581299	1436.411377	227.341995	1000.013184	1124.072266	526.973145	901.617065	1138.839600	-78.739761	1139.735168	882.681061	511.550797	901.432648	869.714142	-79.364107	1027.573242	975.519409	341.602875	1048.500488	974.395081	119.065849	832.879395	1000.469849	195.570496	817.618591	1323.219116	209.057907	1095.875366	1240.921875	218.822968	876.996948	591.945618	407.703430	841.166199	501.282928	349.085785	777.848877	309.461243	415.993469	676.959900	82.953812	299.092896	637.120300	78.971596	253.419357	834.669983	43.765949	269.406372	1060.974854	594.055420	19.970259	1109.365723	500.846313	78.761223	1161.763306	312.792603	16.877827	1214.284424	89.420097	86.434883	1177.072266	53.303841	141.432007	1373.374756	90.082268	132.480606
293	2.92000000	996.600708	1432.822876	427.156952	986.408630	1467.578491	26.742756	896.339722	1535.101318	232.450333	1056.793457	1435.093750	225.805618	1011.121033	1123.626343	525.948730	912.490295	1137.028687	-79.799614	1150.521118	881.948792	511.168549	910.699524	867.882202	-80.600830	1038.091431	974.335693	341.404419	1059.536011	973.054077	118.878098	844.665344	999.571777	193.388077	828.688965	1322.189819	207.636215	1106.843872	1239.529297	217.959671	884.846008	591.691833	407.919647	848.599670	501.009613	349.327484	782.012512	310.361267	416.570862	677.899841	85.097824	299.735626	637.975403	81.777519	254.033264	834.876038	43.759190	269.664246	1075.896851	594.629517	20.599207	1121.647705	500.089600	79.268051	1170.878174	310.540619	18.426092	1219.791870	87.261406	87.904793	1181.739014	52.334846	142.740921	1378.962158	84.324516	134.082031
294	2.93000000	1007.848877	1432.263184	425.438873	997.696899	1465.958130	24.954922	907.644775	1534.163696	230.293839	1068.130127	1433.974854	224.172714	1021.990479	1123.307007	524.862061	923.545532	1135.311890	-80.924286	1160.803406	881.172211	510.767929	920.469788	866.160431	-81.795359	1048.747803	973.302063	341.139679	1070.714722	972.016663	118.612968	856.256287	998.898804	191.479660	839.872192	1321.355103	206.190475	1117.960449	1238.350342	216.988861	892.968262	591.563782	408.140869	856.416016	500.830261	349.614807	786.410400	311.470917	417.249664	678.991577	87.545486	300.495636	639.011536	84.967339	254.767578	835.115845	43.760590	269.938263	1090.557129	595.406372	21.197193	1133.703857	499.461548	79.692909	1179.847168	308.440552	20.004704	1224.415039	85.218147	89.158714	1185.246948	51.714382	143.692871	1383.603882	77.972778	135.610458
295	2.94000000	1019.227722	1431.921143	423.644226	1009.073181	1464.518677	23.096186	919.049316	1533.455322	228.014374	1079.593994	1433.097656	222.444016	1032.621460	1123.141479	523.725403	934.790222	1133.720581	-82.108902	1170.575623	880.376373	510.349365	930.752167	864.572815	-82.936256	1059.533447	972.451660	340.813477	1082.015381	971.322388	118.280212	867.590210	998.473877	189.938553	851.162415	1320.769043	204.724701	1129.226929	1237.427612	215.912842	901.440125	591.557495	408.350006	864.705200	500.754700	349.934052	791.096252	312.820099	417.996765	680.277710	90.352043	301.335388	640.296509	88.609138	255.575073	835.401855	43.762775	270.207062	1104.597534	596.284119	21.730434	1145.461060	499.013214	80.020973	1188.529297	306.866394	21.360310	1228.501587	83.458298	90.128082	1187.961914	51.541927	144.215622	1387.624390	71.439568	136.997803
296	2.95000000	1030.737549	1431.819336	421.790802	1020.534485	1463.291870	21.182251	930.563904	1533.022949	225.636627	1091.179565	1432.504517	220.625961	1043.024536	1123.159302	522.544006	946.243103	1132.297607	-83.346786	1179.831848	879.592712	509.911697	941.558441	863.154327	-84.014854	1070.432373	971.820190	340.429840	1093.396240	970.992676	117.900803	878.602051	998.311584	188.830338	862.546753	1320.477051	203.245209	1140.638306	1236.801147	214.737427	910.361328	591.668701	408.550507	873.580933	500.783966	350.284241	796.153687	314.435638	418.783844	681.818909	93.577652	302.218079	641.918274	92.777985	256.405762	835.745117	43.752396	270.445496	1117.783203	597.205566	22.154978	1156.904053	498.806335	80.238449	1196.797241	306.102997	22.231070	1232.251221	82.070648	90.802475	1190.149902	51.810379	144.328079	1391.209229	65.141281	138.183167
297	2.96000000	1042.379272	1431.982422	419.895538	1032.076904	1462.314209	19.232029	942.197876	1532.903564	223.201508	1102.872803	1432.230713	218.730286	1053.218872	1123.391357	521.316345	957.924683	1131.089844	-84.625671	1188.565063	878.855469	509.450928	952.901459	861.948090	-85.026440	1081.425903	971.443604	339.990326	1104.813843	971.035767	117.491577	889.231506	998.416748	188.209457	874.008240	1320.502197	201.761307	1152.178833	1236.499634	213.473038	919.852051	591.892090	408.765686	883.170227	500.913086	350.684204	801.686157	316.343964	419.600159	683.695740	97.282936	303.112091	643.985962	97.550529	257.214539	836.153381	43.710064	270.627655	1130.028931	598.144104	22.427191	1168.064331	498.884705	80.341667	1204.719971	306.245911	22.470591	1235.696655	81.062622	91.228210	1191.961792	52.415787	144.132690	1394.395020	59.429447	139.135147
